<?xml version="1.0" encoding="utf-8"?>
<!-- Generator: Adobe Illustrator 16.0.0, SVG Export Plug-In . SVG Version: 6.00 Build 0)  -->
<!DOCTYPE svg PUBLIC "-//W3C//DTD SVG 1.1//EN" "http://www.w3.org/Graphics/SVG/1.1/DTD/svg11.dtd">
<svg version="1.1" id="Слой_1" xmlns="http://www.w3.org/2000/svg" xmlns:xlink="http://www.w3.org/1999/xlink" x="0px" y="0px"
	 width="105px" height="24px" viewBox="0 0 105 24" enable-background="new 0 0 105 24" xml:space="preserve">
<g>
	<path fill="#FDBF00" d="M8.008,0.02c0.249,0.062,0.46,0.19,0.64,0.37c2.191,2.206,4.382,4.412,6.569,6.62
		c0.218,0.22,0.379,0.478,0.395,0.804c0.018,0.365-0.153,0.651-0.394,0.896c-1.038,1.052-2.081,2.1-3.122,3.149
		c-0.046,0.046-0.088,0.096-0.132,0.145c-0.423,0.402-0.835,0.814-1.233,1.244c-0.044,0.041-0.09,0.079-0.132,0.121
		c-0.653,0.656-1.296,1.324-1.962,1.97c-0.456,0.44-0.911,0.513-1.408,0.196c-0.115-0.073-0.217-0.162-0.313-0.26
		c-0.671-0.678-1.344-1.354-2.017-2.03c0.009-0.015,0.015-0.03,0.026-0.041c0.759-0.762,1.669-1.184,2.743-1.22
		c0.348-0.012,0.693-0.026,1.033-0.106c0.775-0.183,1.444-0.554,1.991-1.142c0.758-0.73,1.16-1.631,1.214-2.678
		c0.062-1.181-0.331-2.202-1.146-3.055c-0.815-0.857-1.808-1.309-2.991-1.3C6.68,3.711,5.75,4.118,4.971,4.879
		c-0.845,0.827-1.287,1.83-1.27,3.022c0.015,1.109,0.434,2.05,1.208,2.835c-0.389,0.395-0.777,0.79-1.166,1.184
		c-0.026,0.026-0.05,0.059-0.092,0.063c-1.078-1.085-2.156-2.17-3.232-3.257C0.253,8.56,0.12,8.369,0.048,8.14
		c-0.01-0.032-0.103-0.252,0-0.55c0.086-0.248,0.226-0.452,0.406-0.633c2.169-2.185,4.337-4.37,6.506-6.554
		c0.181-0.182,0.392-0.317,0.645-0.379C7.791-0.022,7.977,0.011,8.008,0.02z"/>
	<path fill="#7E8591" d="M3.651,11.983c0.042-0.004,0.065-0.036,0.091-0.063c0.389-0.394,0.777-0.789,1.166-1.184
		c0.044-0.041,0.089-0.08,0.131-0.122C5.688,9.962,6.324,9.296,6.988,8.66c0.535-0.512,1.058-0.545,1.594-0.042
		c0.726,0.681,1.408,1.409,2.109,2.117c-0.546,0.588-1.215,0.959-1.99,1.142c-0.34,0.081-0.685,0.094-1.033,0.106
		c-1.074,0.037-1.984,0.458-2.743,1.22c-0.012,0.012-0.018,0.027-0.027,0.041c-0.972,0.979-1.345,2.16-1.147,3.52
		c0.148,1.024,0.664,1.854,1.441,2.516c0.95,0.81,2.048,1.115,3.277,0.92c1.004-0.159,1.816-0.67,2.468-1.441
		c0.81-0.96,1.114-2.07,0.917-3.316c-0.135-0.854-0.526-1.578-1.125-2.192c0.398-0.429,0.811-0.841,1.233-1.244
		c1.075,1.084,2.15,2.167,3.223,3.253c0.23,0.23,0.408,0.494,0.424,0.84c0.016,0.354-0.142,0.637-0.375,0.873
		c-2.197,2.219-4.398,4.436-6.6,6.649c-0.174,0.176-0.386,0.295-0.626,0.358c-0.031,0.008-0.17,0.045-0.374,0.002
		c-0.298-0.062-0.529-0.235-0.74-0.448c-2.141-2.158-4.284-4.316-6.426-6.476c-0.186-0.187-0.346-0.391-0.423-0.648
		c-0.009-0.03-0.095-0.242-0.001-0.53c0.093-0.284,0.269-0.501,0.473-0.707c1.005-1.011,2.01-2.022,3.014-3.037
		C3.576,12.089,3.636,12.052,3.651,11.983z"/>
	<path fill="#7E8591" d="M70.127,9.303c-0.09,0.225-0.179,0.444-0.266,0.665c-1.725,4.468-3.45,8.933-5.168,13.401
		c-0.069,0.18-0.164,0.266-0.34,0.295c-0.639,0.107-1.275,0.105-1.91-0.027c-0.17-0.035-0.235-0.228-0.153-0.425
		c0.271-0.655,0.544-1.312,0.813-1.967c1.805-4.37,3.608-8.74,5.402-13.114c0.135-0.327,0.314-0.49,0.668-0.501
		c0.608-0.019,1.217-0.039,1.823,0.013c0.226,0.019,0.374,0.128,0.464,0.348c1.045,2.557,2.096,5.112,3.143,7.668
		c0.049,0.12,0.09,0.245,0.119,0.374c0.041,0.162-0.023,0.265-0.183,0.31c-0.121,0.035-0.247,0.042-0.372,0.04
		c-0.385-0.005-0.771,0.027-1.154-0.035c-0.146-0.022-0.238-0.097-0.293-0.244c-0.367-0.996-0.742-1.99-1.115-2.984
		c-0.455-1.214-0.912-2.427-1.369-3.64C70.215,9.42,70.209,9.349,70.127,9.303z"/>
	<path fill="#FFFFFF" d="M41.975,9.645c0.018,0.494,0.047,0.946,0.049,1.396c0.005,1.664,0,3.329,0.004,4.993
		c0,0.159-0.064,0.251-0.211,0.282c-0.489,0.104-0.979,0.104-1.469,0.002c-0.139-0.03-0.205-0.119-0.205-0.271
		c0.002-2.578,0.001-5.157,0.002-7.735c0-0.358,0.193-0.601,0.553-0.63c0.59-0.047,1.183-0.055,1.771,0.015
		c0.351,0.041,0.616,0.237,0.804,0.53c0.441,0.688,0.875,1.38,1.312,2.071c0.745,1.178,1.5,2.349,2.166,3.608
		c0-0.221,0.004-0.412,0-0.602c-0.043-1.774-0.012-3.548-0.021-5.321c-0.001-0.187,0.068-0.263,0.288-0.308
		c0.272-0.056,0.55-0.058,0.827-0.048c0.162,0.006,0.325,0.002,0.486,0.041c0.221,0.053,0.28,0.122,0.28,0.347
		c0,2.534-0.006,5.069,0.005,7.602c0.002,0.475-0.239,0.721-0.676,0.747c-0.406,0.023-0.815,0.007-1.222-0.002
		c-0.418-0.01-0.729-0.219-0.965-0.555c-0.398-0.566-0.751-1.164-1.118-1.75c-0.73-1.17-1.496-2.316-2.183-3.514
		C42.292,10.266,42.148,9.973,41.975,9.645z"/>
	<path fill="#FFFFFF" d="M56.188,11.586c0.295-0.363,0.563-0.691,0.828-1.019c0.721-0.889,1.444-1.777,2.162-2.669
		c0.114-0.142,0.254-0.223,0.426-0.244c0.51-0.063,1.02-0.076,1.524,0.017c0.328,0.061,0.39,0.227,0.209,0.513
		c-0.243,0.386-0.571,0.7-0.873,1.037c-0.692,0.776-1.394,1.547-2.095,2.315c-0.076,0.084-0.084,0.13-0.012,0.223
		c0.974,1.234,1.94,2.472,2.91,3.708c0.114,0.146,0.217,0.303,0.291,0.473c0.086,0.197,0.03,0.313-0.174,0.375
		c-0.173,0.049-0.352,0.067-0.531,0.067c-0.379,0.002-0.76,0.022-1.139-0.028c-0.199-0.028-0.346-0.121-0.47-0.285
		c-0.994-1.334-1.995-2.662-2.994-3.992c-0.013-0.018-0.024-0.032-0.065-0.081c0,0.094,0,0.15,0,0.207c0,1.265,0,2.528,0,3.793
		c0,0.216-0.033,0.278-0.242,0.323c-0.539,0.109-1.078,0.103-1.617,0c-0.165-0.033-0.241-0.129-0.241-0.313
		c0.004-2.671,0.003-5.343,0.003-8.014c0-0.198,0.046-0.272,0.239-0.309c0.543-0.105,1.09-0.104,1.634,0
		c0.16,0.031,0.229,0.131,0.229,0.305C56.184,9.17,56.188,10.352,56.188,11.586z"/>
	<path fill="#7E8591" d="M82.066,14.626c0.25-0.668,0.49-1.313,0.729-1.958c0.595-1.611,1.188-3.223,1.779-4.835
		c0.039-0.109,0.118-0.136,0.207-0.157c0.454-0.107,0.913-0.122,1.376-0.085c0.13,0.01,0.259,0.033,0.388,0.054
		c0.233,0.038,0.313,0.187,0.226,0.415c-0.299,0.762-0.6,1.524-0.9,2.286c-0.73,1.846-1.469,3.689-2.193,5.538
		c-0.113,0.291-0.277,0.472-0.6,0.482c-0.646,0.022-1.291,0.045-1.938-0.015c-0.213-0.021-0.336-0.136-0.414-0.336
		c-1.009-2.555-2.021-5.106-3.033-7.66c-0.045-0.117-0.086-0.236-0.118-0.357c-0.056-0.215,0.016-0.319,0.233-0.356
		c0.254-0.043,0.51-0.034,0.766-0.034c0.212,0.001,0.423,0.005,0.634,0.031c0.208,0.025,0.336,0.12,0.413,0.332
		c0.795,2.191,1.6,4.378,2.4,6.567C82.027,14.561,82.041,14.578,82.066,14.626z"/>
	<path fill="#FFFFFF" d="M104.971,15.955c-0.045,0.337-0.113,0.398-0.443,0.398c-1.663,0-3.325-0.002-4.987,0
		c-0.126,0-0.248-0.013-0.364-0.067c-0.16-0.077-0.251-0.203-0.27-0.382c-0.008-0.064-0.008-0.131-0.008-0.196
		c0-2.463,0-4.925,0-7.389c0-0.472,0.174-0.658,0.647-0.66c1.685-0.004,3.367,0,5.052-0.003c0.168,0,0.27,0.075,0.307,0.234
		c0.072,0.308,0.074,0.618,0,0.926c-0.039,0.165-0.146,0.236-0.32,0.235c-1.146-0.005-2.292,0.001-3.438-0.007
		c-0.15-0.001-0.176,0.044-0.174,0.182c0.008,0.591,0.01,1.182,0,1.773c-0.004,0.151,0.045,0.177,0.182,0.177
		c0.951-0.007,1.902-0.004,2.853-0.003c0.222,0,0.313,0.062,0.357,0.277c0.057,0.27,0.06,0.544-0.001,0.813
		c-0.049,0.215-0.125,0.268-0.344,0.268c-0.963,0-1.924,0.002-2.886-0.004c-0.124,0-0.161,0.027-0.161,0.16
		c0.008,0.711,0.008,1.422,0,2.133c-0.002,0.131,0.038,0.15,0.153,0.15c1.13-0.007,2.261-0.005,3.392-0.005
		c0.332,0,0.402,0.062,0.453,0.394C104.971,15.561,104.971,15.757,104.971,15.955z"/>
	<path fill="#FFFFFF" d="M22.451,11.887c0-1.292,0-2.583,0-3.875c0-0.226,0.047-0.295,0.268-0.335
		c0.518-0.096,1.037-0.097,1.554-0.002c0.232,0.043,0.276,0.109,0.276,0.346c0,2.222,0.002,4.445-0.004,6.667
		c0,0.174,0.049,0.203,0.207,0.203c0.972-0.008,1.945-0.004,2.917-0.004c0.275,0,0.353,0.055,0.4,0.322
		c0.053,0.298,0.056,0.6-0.019,0.895c-0.051,0.201-0.122,0.25-0.323,0.25c-1.554,0.002-3.107,0.002-4.662,0
		c-0.426,0-0.615-0.193-0.615-0.623C22.451,14.449,22.451,13.168,22.451,11.887z"/>
	<path fill="#FFFFFF" d="M32.569,12c0-1.33,0-2.66,0-3.99c0-0.222,0.044-0.292,0.251-0.331c0.528-0.1,1.058-0.102,1.586-0.001
		c0.212,0.04,0.261,0.112,0.261,0.326c0,2.661,0,5.321,0,7.98c0,0.232-0.035,0.295-0.265,0.338
		c-0.533,0.099-1.069,0.103-1.601-0.008c-0.203-0.041-0.232-0.094-0.232-0.31C32.569,14.671,32.569,13.336,32.569,12z"/>
	<path fill="#FFFFFF" d="M91.323,12.011c0-1.336-0.001-2.671,0-4.007c0-0.219,0.045-0.287,0.256-0.326
		c0.519-0.097,1.037-0.1,1.555-0.004c0.245,0.045,0.287,0.107,0.287,0.352c0.001,2.649,0.001,5.298,0,7.949
		c0,0.244-0.032,0.307-0.271,0.351c-0.526,0.097-1.058,0.101-1.584-0.007c-0.213-0.043-0.243-0.096-0.243-0.315
		C91.322,14.672,91.323,13.342,91.323,12.011z"/>
	<path fill="#FDBF00" d="M70.098,10.287c0.428,1.145,0.846,2.262,1.27,3.393c-0.848,0-1.678,0-2.531,0
		C69.254,12.553,69.671,11.433,70.098,10.287z"/>
	<path fill="#FFFFFF" d="M104.971,15.955c0-0.198,0-0.396,0-0.596c0.01,0,0.021,0,0.029,0c-0.001,0.199-0.001,0.396-0.001,0.596
		C104.989,15.955,104.98,15.955,104.971,15.955z"/>
</g>
</svg>
